<svg width="31" height="28" viewBox="0 0 31 28" fill="none" xmlns="http://www.w3.org/2000/svg">
<path d="M15.9058 9.50896C14.9785 9.50896 14.0719 9.76245 13.3008 10.2374C12.5298 10.7123 11.9288 11.3874 11.5739 12.1772C11.219 12.967 11.1261 13.836 11.307 14.6744C11.488 15.5129 11.9345 16.283 12.5903 16.8875C13.2461 17.492 14.0815 17.9037 14.9911 18.0704C15.9006 18.2372 16.8434 18.1516 17.7002 17.8245C18.557 17.4973 19.2893 16.9433 19.8045 16.2325C20.3198 15.5217 20.5947 14.6861 20.5947 13.8312C20.591 12.6859 20.0958 11.5885 19.2173 10.7787C18.3388 9.96886 17.1483 9.51238 15.9058 9.50896ZM26.0292 13.8312C26.0267 14.2351 25.9946 14.6383 25.9331 15.0382L28.7868 17.0978C28.9111 17.1924 28.9949 17.3246 29.0231 17.4709C29.0514 17.6172 29.0223 17.768 28.941 17.8963L26.2414 22.1926C26.1593 22.3198 26.0312 22.4162 25.8796 22.465C25.728 22.5137 25.5627 22.5116 25.4126 22.459L22.0571 21.2163C21.3584 21.7123 20.5938 22.1239 19.7818 22.4412L19.2801 25.725C19.252 25.8721 19.1694 26.0056 19.0464 26.1028C18.9233 26.2 18.7675 26.2547 18.6055 26.2577H13.2062C13.0472 26.2549 12.8939 26.2024 12.7714 26.1089C12.6488 26.0154 12.5643 25.8863 12.5316 25.7428L12.0299 22.459C11.2157 22.1454 10.4505 21.7332 9.7546 21.2331L6.3991 22.4757C6.24911 22.5284 6.08379 22.5306 5.93221 22.4819C5.78063 22.4333 5.6525 22.337 5.57034 22.2099L2.87071 17.9141C2.78945 17.7858 2.76033 17.635 2.78857 17.4887C2.81681 17.3425 2.90056 17.2102 3.02485 17.1156L5.87864 15.056C5.81777 14.6501 5.78566 14.241 5.78251 13.8312C5.78495 13.4273 5.81707 13.0241 5.87864 12.6242L3.02485 10.5647C2.90056 10.4701 2.81681 10.3378 2.78857 10.1915C2.76033 10.0452 2.78945 9.89445 2.87071 9.76613L5.57034 5.46981C5.65241 5.34262 5.7805 5.24619 5.93209 5.19747C6.08367 5.14875 6.24904 5.15087 6.3991 5.20345L9.7546 6.4461C10.4533 5.95013 11.2179 5.53852 12.0299 5.22128L12.5316 1.93744C12.5597 1.79035 12.6423 1.65681 12.7653 1.55965C12.8884 1.46248 13.0442 1.40772 13.2062 1.40472H18.6055C18.7645 1.40758 18.9178 1.46004 19.0403 1.55356C19.1629 1.64707 19.2474 1.77611 19.2801 1.91961L19.7818 5.20345C20.597 5.5168 21.3632 5.92907 22.06 6.42935L25.4126 5.1867C25.5626 5.13407 25.7279 5.13187 25.8795 5.18049C26.0311 5.22911 26.1592 5.32543 26.2414 5.45252L28.941 9.74884C29.0223 9.87717 29.0514 10.0279 29.0231 10.1742C28.9949 10.3205 28.9111 10.4528 28.7868 10.5474L25.9331 12.6069C25.9939 13.0127 26.026 13.4216 26.0292 13.8312Z" fill="url(#paint0_linear_323_29965)"/>
<defs>
<linearGradient id="paint0_linear_323_29965" x1="2.77807" y1="13.8312" x2="29.0336" y2="13.8312" gradientUnits="userSpaceOnUse">
<stop/>
<stop offset="0.0001" stop-color="#2094FE"/>
<stop offset="0.975" stop-color="#007DED"/>
</linearGradient>
</defs>
</svg>
